%TF.GenerationSoftware,KiCad,Pcbnew,10.0.0*%
%TF.CreationDate,2026-03-26T19:33:12+01:00*%
%TF.ProjectId,test,74657374-2e6b-4696-9361-645f70636258,rev?*%
%TF.SameCoordinates,Original*%
%TF.FileFunction,Soldermask,Bot*%
%TF.FilePolarity,Negative*%
%FSLAX46Y46*%
G04 Gerber Fmt 4.6, Leading zero omitted, Abs format (unit mm)*
G04 Created by KiCad (PCBNEW 10.0.0) date 2026-03-26 19:33:12*
%MOMM*%
%LPD*%
G01*
G04 APERTURE LIST*
G04 Aperture macros list*
%AMRoundRect*
0 Rectangle with rounded corners*
0 $1 Rounding radius*
0 $2 $3 $4 $5 $6 $7 $8 $9 X,Y pos of 4 corners*
0 Add a 4 corners polygon primitive as box body*
4,1,4,$2,$3,$4,$5,$6,$7,$8,$9,$2,$3,0*
0 Add four circle primitives for the rounded corners*
1,1,$1+$1,$2,$3*
1,1,$1+$1,$4,$5*
1,1,$1+$1,$6,$7*
1,1,$1+$1,$8,$9*
0 Add four rect primitives between the rounded corners*
20,1,$1+$1,$2,$3,$4,$5,0*
20,1,$1+$1,$4,$5,$6,$7,0*
20,1,$1+$1,$6,$7,$8,$9,0*
20,1,$1+$1,$8,$9,$2,$3,0*%
%AMOutline5P*
0 Free polygon, 5 corners , with rotation*
0 The origin of the aperture is its center*
0 number of corners: always 5*
0 $1 to $10 corner X, Y*
0 $11 Rotation angle, in degrees counterclockwise*
0 create outline with 5 corners*
4,1,5,$1,$2,$3,$4,$5,$6,$7,$8,$9,$10,$1,$2,$11*%
%AMOutline6P*
0 Free polygon, 6 corners , with rotation*
0 The origin of the aperture is its center*
0 number of corners: always 6*
0 $1 to $12 corner X, Y*
0 $13 Rotation angle, in degrees counterclockwise*
0 create outline with 6 corners*
4,1,6,$1,$2,$3,$4,$5,$6,$7,$8,$9,$10,$11,$12,$1,$2,$13*%
%AMOutline7P*
0 Free polygon, 7 corners , with rotation*
0 The origin of the aperture is its center*
0 number of corners: always 7*
0 $1 to $14 corner X, Y*
0 $15 Rotation angle, in degrees counterclockwise*
0 create outline with 7 corners*
4,1,7,$1,$2,$3,$4,$5,$6,$7,$8,$9,$10,$11,$12,$13,$14,$1,$2,$15*%
%AMOutline8P*
0 Free polygon, 8 corners , with rotation*
0 The origin of the aperture is its center*
0 number of corners: always 8*
0 $1 to $16 corner X, Y*
0 $17 Rotation angle, in degrees counterclockwise*
0 create outline with 8 corners*
4,1,8,$1,$2,$3,$4,$5,$6,$7,$8,$9,$10,$11,$12,$13,$14,$15,$16,$1,$2,$17*%
G04 Aperture macros list end*
%ADD10RoundRect,0.190500X-1.079500X-0.444500X1.079500X-0.444500X1.079500X0.444500X-1.079500X0.444500X0*%
%ADD11RoundRect,0.190500X0.444500X-1.079500X0.444500X1.079500X-0.444500X1.079500X-0.444500X-1.079500X0*%
%ADD12C,2.000000*%
%ADD13Outline5P,-1.000000X0.600000X-0.600000X1.000000X1.000000X1.000000X1.000000X-1.000000X-1.000000X-1.000000X180.000000*%
%ADD14Outline5P,-1.000000X0.600000X-0.600000X1.000000X1.000000X1.000000X1.000000X-1.000000X-1.000000X-1.000000X0.000000*%
%ADD15RoundRect,0.190500X1.079500X0.444500X-1.079500X0.444500X-1.079500X-0.444500X1.079500X-0.444500X0*%
G04 APERTURE END LIST*
D10*
%TO.C,REF\u002A\u002A*%
X182880000Y-69850000D03*
X182880000Y-72390000D03*
%TD*%
D11*
%TO.C,REF\u002A\u002A*%
X173990000Y-78740000D03*
X176530000Y-78740000D03*
%TD*%
%TO.C,REF\u002A\u002A*%
X160020000Y-78740000D03*
X162560000Y-78740000D03*
X165100000Y-78740000D03*
X167640000Y-78740000D03*
%TD*%
D10*
%TO.C,REF\u002A\u002A*%
X99060000Y-50800000D03*
X99060000Y-48260000D03*
X99060000Y-45720000D03*
X99060000Y-43180000D03*
%TD*%
%TO.C,REF\u002A\u002A*%
X99060000Y-60960000D03*
X99060000Y-58420000D03*
%TD*%
%TO.C,REF\u002A\u002A*%
X99060000Y-68580000D03*
X99060000Y-71120000D03*
X99060000Y-73660000D03*
X99060000Y-76200000D03*
%TD*%
D12*
%TO.C,REF\u002A\u002A*%
X152400000Y-78740000D03*
D13*
X152400000Y-76200000D03*
%TD*%
D12*
%TO.C,REF\u002A\u002A*%
X144780000Y-78740000D03*
D13*
X144780000Y-76200000D03*
%TD*%
D12*
%TO.C,REF\u002A\u002A*%
X130810000Y-78740000D03*
X138430000Y-78740000D03*
%TD*%
%TO.C,REF\u002A\u002A*%
X130810000Y-81280000D03*
X138430000Y-81280000D03*
%TD*%
D10*
%TO.C,REF\u002A\u002A*%
X123190000Y-83820000D03*
X123190000Y-81280000D03*
X123190000Y-78740000D03*
X123190000Y-76200000D03*
X123190000Y-73660000D03*
X123190000Y-71120000D03*
X123190000Y-68580000D03*
X123190000Y-66040000D03*
X123190000Y-63500000D03*
X123190000Y-60960000D03*
X123190000Y-58420000D03*
X123190000Y-55880000D03*
X123190000Y-53340000D03*
X123190000Y-50800000D03*
X123190000Y-48260000D03*
X123190000Y-45720000D03*
X123190000Y-43180000D03*
X123190000Y-40640000D03*
X123190000Y-38100000D03*
X123190000Y-35560000D03*
X105410000Y-83820000D03*
X105410000Y-81280000D03*
X105410000Y-78740000D03*
X105410000Y-76200000D03*
X105410000Y-73660000D03*
X105410000Y-71120000D03*
X105410000Y-68580000D03*
X105410000Y-66040000D03*
X105410000Y-63500000D03*
X105410000Y-60960000D03*
X105410000Y-58420000D03*
X105410000Y-55880000D03*
X105410000Y-53340000D03*
X105410000Y-50800000D03*
X105410000Y-48260000D03*
X105410000Y-45720000D03*
X105410000Y-43180000D03*
X105410000Y-40640000D03*
X105410000Y-38100000D03*
X105410000Y-35560000D03*
%TD*%
D12*
%TO.C,REF\u002A\u002A*%
X172720000Y-38100000D03*
D14*
X172720000Y-40640000D03*
%TD*%
D10*
%TO.C,REF\u002A\u002A*%
X182880000Y-45720000D03*
X182880000Y-48260000D03*
%TD*%
D15*
%TO.C,REF\u002A\u002A*%
X182880000Y-63500000D03*
X182880000Y-60960000D03*
X182880000Y-58420000D03*
X182880000Y-55880000D03*
%TD*%
D10*
%TO.C,REF\u002A\u002A*%
X132080000Y-35560000D03*
X132080000Y-38100000D03*
X132080000Y-40640000D03*
%TD*%
%TO.C,REF\u002A\u002A*%
X162560000Y-50800000D03*
X162560000Y-53340000D03*
X162560000Y-55880000D03*
X162560000Y-58420000D03*
X162560000Y-60960000D03*
X162560000Y-63500000D03*
X162560000Y-66040000D03*
X162560000Y-68580000D03*
X175260000Y-50800000D03*
X175260000Y-53340000D03*
X175260000Y-55880000D03*
X175260000Y-58420000D03*
X175260000Y-60960000D03*
X175260000Y-63500000D03*
X175260000Y-66040000D03*
X175260000Y-68580000D03*
%TD*%
%TO.C,REF\u002A\u002A*%
X134620000Y-50800000D03*
X134620000Y-53340000D03*
X134620000Y-55880000D03*
X134620000Y-58420000D03*
X134620000Y-60960000D03*
X134620000Y-63500000D03*
X134620000Y-66040000D03*
X134620000Y-68580000D03*
X147320000Y-50800000D03*
X147320000Y-53340000D03*
X147320000Y-55880000D03*
X147320000Y-58420000D03*
X147320000Y-60960000D03*
X147320000Y-63500000D03*
X147320000Y-66040000D03*
X147320000Y-68580000D03*
%TD*%
%TO.C,REF\u002A\u002A*%
X154940000Y-55880000D03*
X154940000Y-58420000D03*
X154940000Y-60960000D03*
X154940000Y-63500000D03*
%TD*%
%TO.C,REF\u002A\u002A*%
X149860000Y-38100000D03*
X149860000Y-40640000D03*
%TD*%
%TO.C,REF\u002A\u002A*%
X142240000Y-38100000D03*
X142240000Y-40640000D03*
%TD*%
D12*
%TO.C,REF\u002A\u002A*%
X157480000Y-35560000D03*
X165100000Y-35560000D03*
%TD*%
M02*
