M48
METRIC,TZ
T1C0.800
T2C1.000
%
G90
G05
T1
X99060Y-43180
X99060Y-45720
X99060Y-48260
X99060Y-50800
X99060Y-58420
X99060Y-60960
X99060Y-68580
X99060Y-71120
X99060Y-73660
X99060Y-76200
X130810Y-78740
X130810Y-81280
X132080Y-35560
X132080Y-38100
X132080Y-40640
X138430Y-78740
X138430Y-81280
X142240Y-38100
X142240Y-40640
X144780Y-76200
X144780Y-78740
X149860Y-38100
X149860Y-40640
X152400Y-76200
X152400Y-78740
X154940Y-55880
X154940Y-58420
X154940Y-60960
X154940Y-63500
X157480Y-35560
X160020Y-78740
X162560Y-78740
X165100Y-35560
X165100Y-78740
X167640Y-78740
X172720Y-38100
X172720Y-40640
X173990Y-78740
X176530Y-78740
X182880Y-45720
X182880Y-48260
X182880Y-55880
X182880Y-58420
X182880Y-60960
X182880Y-63500
X182880Y-69850
X182880Y-72390
T2
X105410Y-35560
X105410Y-38100
X105410Y-40640
X105410Y-43180
X105410Y-45720
X105410Y-48260
X105410Y-50800
X105410Y-53340
X105410Y-55880
X105410Y-58420
X105410Y-60960
X105410Y-63500
X105410Y-66040
X105410Y-68580
X105410Y-71120
X105410Y-73660
X105410Y-76200
X105410Y-78740
X105410Y-81280
X105410Y-83820
X123190Y-35560
X123190Y-38100
X123190Y-40640
X123190Y-43180
X123190Y-45720
X123190Y-48260
X123190Y-50800
X123190Y-53340
X123190Y-55880
X123190Y-58420
X123190Y-60960
X123190Y-63500
X123190Y-66040
X123190Y-68580
X123190Y-71120
X123190Y-73660
X123190Y-76200
X123190Y-78740
X123190Y-81280
X123190Y-83820
X134620Y-50800
X134620Y-53340
X134620Y-55880
X134620Y-58420
X134620Y-60960
X134620Y-63500
X134620Y-66040
X134620Y-68580
X147320Y-50800
X147320Y-53340
X147320Y-55880
X147320Y-58420
X147320Y-60960
X147320Y-63500
X147320Y-66040
X147320Y-68580
X162560Y-50800
X162560Y-53340
X162560Y-55880
X162560Y-58420
X162560Y-60960
X162560Y-63500
X162560Y-66040
X162560Y-68580
X175260Y-50800
X175260Y-53340
X175260Y-55880
X175260Y-58420
X175260Y-60960
X175260Y-63500
X175260Y-66040
X175260Y-68580
M30
