%TF.GenerationSoftware,KiCad,Pcbnew,10.0.0*%
%TF.CreationDate,2026-03-26T19:33:12+01:00*%
%TF.ProjectId,test,74657374-2e6b-4696-9361-645f70636258,rev?*%
%TF.SameCoordinates,Original*%
%TF.FileFunction,Copper,L1,Top*%
%TF.FilePolarity,Positive*%
%FSLAX46Y46*%
G04 Gerber Fmt 4.6, Leading zero omitted, Abs format (unit mm)*
G04 Created by KiCad (PCBNEW 10.0.0) date 2026-03-26 19:33:12*
%MOMM*%
%LPD*%
G01*
G04 APERTURE LIST*
G04 Aperture macros list*
%AMRoundRect*
0 Rectangle with rounded corners*
0 $1 Rounding radius*
0 $2 $3 $4 $5 $6 $7 $8 $9 X,Y pos of 4 corners*
0 Add a 4 corners polygon primitive as box body*
4,1,4,$2,$3,$4,$5,$6,$7,$8,$9,$2,$3,0*
0 Add four circle primitives for the rounded corners*
1,1,$1+$1,$2,$3*
1,1,$1+$1,$4,$5*
1,1,$1+$1,$6,$7*
1,1,$1+$1,$8,$9*
0 Add four rect primitives between the rounded corners*
20,1,$1+$1,$2,$3,$4,$5,0*
20,1,$1+$1,$4,$5,$6,$7,0*
20,1,$1+$1,$6,$7,$8,$9,0*
20,1,$1+$1,$8,$9,$2,$3,0*%
%AMOutline5P*
0 Free polygon, 5 corners , with rotation*
0 The origin of the aperture is its center*
0 number of corners: always 5*
0 $1 to $10 corner X, Y*
0 $11 Rotation angle, in degrees counterclockwise*
0 create outline with 5 corners*
4,1,5,$1,$2,$3,$4,$5,$6,$7,$8,$9,$10,$1,$2,$11*%
%AMOutline6P*
0 Free polygon, 6 corners , with rotation*
0 The origin of the aperture is its center*
0 number of corners: always 6*
0 $1 to $12 corner X, Y*
0 $13 Rotation angle, in degrees counterclockwise*
0 create outline with 6 corners*
4,1,6,$1,$2,$3,$4,$5,$6,$7,$8,$9,$10,$11,$12,$1,$2,$13*%
%AMOutline7P*
0 Free polygon, 7 corners , with rotation*
0 The origin of the aperture is its center*
0 number of corners: always 7*
0 $1 to $14 corner X, Y*
0 $15 Rotation angle, in degrees counterclockwise*
0 create outline with 7 corners*
4,1,7,$1,$2,$3,$4,$5,$6,$7,$8,$9,$10,$11,$12,$13,$14,$1,$2,$15*%
%AMOutline8P*
0 Free polygon, 8 corners , with rotation*
0 The origin of the aperture is its center*
0 number of corners: always 8*
0 $1 to $16 corner X, Y*
0 $17 Rotation angle, in degrees counterclockwise*
0 create outline with 8 corners*
4,1,8,$1,$2,$3,$4,$5,$6,$7,$8,$9,$10,$11,$12,$13,$14,$15,$16,$1,$2,$17*%
G04 Aperture macros list end*
%TA.AperFunction,ComponentPad*%
%ADD10RoundRect,0.190500X-1.079500X-0.444500X1.079500X-0.444500X1.079500X0.444500X-1.079500X0.444500X0*%
%TD*%
%TA.AperFunction,ComponentPad*%
%ADD11RoundRect,0.190500X0.444500X-1.079500X0.444500X1.079500X-0.444500X1.079500X-0.444500X-1.079500X0*%
%TD*%
%TA.AperFunction,ComponentPad*%
%ADD12C,2.000000*%
%TD*%
%TA.AperFunction,ComponentPad*%
%ADD13Outline5P,-1.000000X0.600000X-0.600000X1.000000X1.000000X1.000000X1.000000X-1.000000X-1.000000X-1.000000X180.000000*%
%TD*%
%TA.AperFunction,ComponentPad*%
%ADD14Outline5P,-1.000000X0.600000X-0.600000X1.000000X1.000000X1.000000X1.000000X-1.000000X-1.000000X-1.000000X0.000000*%
%TD*%
%TA.AperFunction,ComponentPad*%
%ADD15RoundRect,0.190500X1.079500X0.444500X-1.079500X0.444500X-1.079500X-0.444500X1.079500X-0.444500X0*%
%TD*%
%TA.AperFunction,Conductor*%
%ADD16C,1.000000*%
%TD*%
%TA.AperFunction,Conductor*%
%ADD17C,0.500000*%
%TD*%
G04 APERTURE END LIST*
D10*
%TO.P,REF\u002A\u002A,1*%
%TO.N,N/C*%
X182880000Y-69850000D03*
%TO.P,REF\u002A\u002A,2*%
X182880000Y-72390000D03*
%TD*%
D11*
%TO.P,REF\u002A\u002A,1*%
%TO.N,N/C*%
X173990000Y-78740000D03*
%TO.P,REF\u002A\u002A,2*%
X176530000Y-78740000D03*
%TD*%
%TO.P,REF\u002A\u002A,1*%
%TO.N,N/C*%
X160020000Y-78740000D03*
%TO.P,REF\u002A\u002A,2*%
X162560000Y-78740000D03*
%TO.P,REF\u002A\u002A,3*%
X165100000Y-78740000D03*
%TO.P,REF\u002A\u002A,4*%
X167640000Y-78740000D03*
%TD*%
D10*
%TO.P,REF\u002A\u002A,4*%
%TO.N,N/C*%
X99060000Y-50800000D03*
%TO.P,REF\u002A\u002A,3*%
X99060000Y-48260000D03*
%TO.P,REF\u002A\u002A,2*%
X99060000Y-45720000D03*
%TO.P,REF\u002A\u002A,1*%
X99060000Y-43180000D03*
%TD*%
%TO.P,REF\u002A\u002A,2*%
%TO.N,N/C*%
X99060000Y-60960000D03*
%TO.P,REF\u002A\u002A,1*%
X99060000Y-58420000D03*
%TD*%
%TO.P,REF\u002A\u002A,1*%
%TO.N,N/C*%
X99060000Y-68580000D03*
%TO.P,REF\u002A\u002A,2*%
X99060000Y-71120000D03*
%TO.P,REF\u002A\u002A,3*%
X99060000Y-73660000D03*
%TO.P,REF\u002A\u002A,4*%
X99060000Y-76200000D03*
%TD*%
D12*
%TO.P,REF\u002A\u002A,1*%
%TO.N,N/C*%
X152400000Y-78740000D03*
D13*
%TO.P,REF\u002A\u002A,2*%
X152400000Y-76200000D03*
%TD*%
D12*
%TO.P,REF\u002A\u002A,1*%
%TO.N,N/C*%
X144780000Y-78740000D03*
D13*
%TO.P,REF\u002A\u002A,2*%
X144780000Y-76200000D03*
%TD*%
D12*
%TO.P,REF\u002A\u002A,1*%
%TO.N,N/C*%
X130810000Y-78740000D03*
%TO.P,REF\u002A\u002A,2*%
X138430000Y-78740000D03*
%TD*%
%TO.P,REF\u002A\u002A,1*%
%TO.N,N/C*%
X130810000Y-81280000D03*
%TO.P,REF\u002A\u002A,2*%
X138430000Y-81280000D03*
%TD*%
D10*
%TO.P,REF\u002A\u002A,40*%
%TO.N,N/C*%
X123190000Y-83820000D03*
%TO.P,REF\u002A\u002A,39*%
X123190000Y-81280000D03*
%TO.P,REF\u002A\u002A,38*%
X123190000Y-78740000D03*
%TO.P,REF\u002A\u002A,37*%
X123190000Y-76200000D03*
%TO.P,REF\u002A\u002A,36*%
X123190000Y-73660000D03*
%TO.P,REF\u002A\u002A,35*%
X123190000Y-71120000D03*
%TO.P,REF\u002A\u002A,34*%
X123190000Y-68580000D03*
%TO.P,REF\u002A\u002A,33*%
X123190000Y-66040000D03*
%TO.P,REF\u002A\u002A,32*%
X123190000Y-63500000D03*
%TO.P,REF\u002A\u002A,31*%
X123190000Y-60960000D03*
%TO.P,REF\u002A\u002A,30*%
X123190000Y-58420000D03*
%TO.P,REF\u002A\u002A,29*%
X123190000Y-55880000D03*
%TO.P,REF\u002A\u002A,28*%
X123190000Y-53340000D03*
%TO.P,REF\u002A\u002A,27*%
X123190000Y-50800000D03*
%TO.P,REF\u002A\u002A,26*%
X123190000Y-48260000D03*
%TO.P,REF\u002A\u002A,25*%
X123190000Y-45720000D03*
%TO.P,REF\u002A\u002A,24*%
X123190000Y-43180000D03*
%TO.P,REF\u002A\u002A,23*%
X123190000Y-40640000D03*
%TO.P,REF\u002A\u002A,22*%
X123190000Y-38100000D03*
%TO.P,REF\u002A\u002A,21*%
X123190000Y-35560000D03*
%TO.P,REF\u002A\u002A,20*%
X105410000Y-83820000D03*
%TO.P,REF\u002A\u002A,19*%
X105410000Y-81280000D03*
%TO.P,REF\u002A\u002A,18*%
X105410000Y-78740000D03*
%TO.P,REF\u002A\u002A,17*%
X105410000Y-76200000D03*
%TO.P,REF\u002A\u002A,16*%
X105410000Y-73660000D03*
%TO.P,REF\u002A\u002A,15*%
X105410000Y-71120000D03*
%TO.P,REF\u002A\u002A,14*%
X105410000Y-68580000D03*
%TO.P,REF\u002A\u002A,13*%
X105410000Y-66040000D03*
%TO.P,REF\u002A\u002A,12*%
X105410000Y-63500000D03*
%TO.P,REF\u002A\u002A,11*%
X105410000Y-60960000D03*
%TO.P,REF\u002A\u002A,10*%
X105410000Y-58420000D03*
%TO.P,REF\u002A\u002A,9*%
X105410000Y-55880000D03*
%TO.P,REF\u002A\u002A,8*%
X105410000Y-53340000D03*
%TO.P,REF\u002A\u002A,7*%
X105410000Y-50800000D03*
%TO.P,REF\u002A\u002A,6*%
X105410000Y-48260000D03*
%TO.P,REF\u002A\u002A,5*%
X105410000Y-45720000D03*
%TO.P,REF\u002A\u002A,4*%
X105410000Y-43180000D03*
%TO.P,REF\u002A\u002A,3*%
X105410000Y-40640000D03*
%TO.P,REF\u002A\u002A,2*%
X105410000Y-38100000D03*
%TO.P,REF\u002A\u002A,1*%
X105410000Y-35560000D03*
%TD*%
D12*
%TO.P,REF\u002A\u002A,1*%
%TO.N,N/C*%
X172720000Y-38100000D03*
D14*
%TO.P,REF\u002A\u002A,2*%
X172720000Y-40640000D03*
%TD*%
D10*
%TO.P,REF\u002A\u002A,1*%
%TO.N,N/C*%
X182880000Y-45720000D03*
%TO.P,REF\u002A\u002A,2*%
X182880000Y-48260000D03*
%TD*%
D15*
%TO.P,REF\u002A\u002A,1*%
%TO.N,N/C*%
X182880000Y-63500000D03*
%TO.P,REF\u002A\u002A,2*%
X182880000Y-60960000D03*
%TO.P,REF\u002A\u002A,3*%
X182880000Y-58420000D03*
%TO.P,REF\u002A\u002A,4*%
X182880000Y-55880000D03*
%TD*%
D10*
%TO.P,REF\u002A\u002A,1*%
%TO.N,N/C*%
X132080000Y-35560000D03*
%TO.P,REF\u002A\u002A,2*%
X132080000Y-38100000D03*
%TO.P,REF\u002A\u002A,3*%
X132080000Y-40640000D03*
%TD*%
%TO.P,REF\u002A\u002A,1*%
%TO.N,N/C*%
X162560000Y-50800000D03*
%TO.P,REF\u002A\u002A,2*%
X162560000Y-53340000D03*
%TO.P,REF\u002A\u002A,3*%
X162560000Y-55880000D03*
%TO.P,REF\u002A\u002A,4*%
X162560000Y-58420000D03*
%TO.P,REF\u002A\u002A,5*%
X162560000Y-60960000D03*
%TO.P,REF\u002A\u002A,6*%
X162560000Y-63500000D03*
%TO.P,REF\u002A\u002A,7*%
X162560000Y-66040000D03*
%TO.P,REF\u002A\u002A,8*%
X162560000Y-68580000D03*
%TO.P,REF\u002A\u002A,9*%
X175260000Y-50800000D03*
%TO.P,REF\u002A\u002A,10*%
X175260000Y-53340000D03*
%TO.P,REF\u002A\u002A,11*%
X175260000Y-55880000D03*
%TO.P,REF\u002A\u002A,12*%
X175260000Y-58420000D03*
%TO.P,REF\u002A\u002A,13*%
X175260000Y-60960000D03*
%TO.P,REF\u002A\u002A,14*%
X175260000Y-63500000D03*
%TO.P,REF\u002A\u002A,15*%
X175260000Y-66040000D03*
%TO.P,REF\u002A\u002A,16*%
X175260000Y-68580000D03*
%TD*%
%TO.P,REF\u002A\u002A,1*%
%TO.N,N/C*%
X134620000Y-50800000D03*
%TO.P,REF\u002A\u002A,2*%
X134620000Y-53340000D03*
%TO.P,REF\u002A\u002A,3*%
X134620000Y-55880000D03*
%TO.P,REF\u002A\u002A,4*%
X134620000Y-58420000D03*
%TO.P,REF\u002A\u002A,5*%
X134620000Y-60960000D03*
%TO.P,REF\u002A\u002A,6*%
X134620000Y-63500000D03*
%TO.P,REF\u002A\u002A,7*%
X134620000Y-66040000D03*
%TO.P,REF\u002A\u002A,8*%
X134620000Y-68580000D03*
%TO.P,REF\u002A\u002A,9*%
X147320000Y-50800000D03*
%TO.P,REF\u002A\u002A,10*%
X147320000Y-53340000D03*
%TO.P,REF\u002A\u002A,11*%
X147320000Y-55880000D03*
%TO.P,REF\u002A\u002A,12*%
X147320000Y-58420000D03*
%TO.P,REF\u002A\u002A,13*%
X147320000Y-60960000D03*
%TO.P,REF\u002A\u002A,14*%
X147320000Y-63500000D03*
%TO.P,REF\u002A\u002A,15*%
X147320000Y-66040000D03*
%TO.P,REF\u002A\u002A,16*%
X147320000Y-68580000D03*
%TD*%
%TO.P,REF\u002A\u002A,1*%
%TO.N,N/C*%
X154940000Y-55880000D03*
%TO.P,REF\u002A\u002A,2*%
X154940000Y-58420000D03*
%TO.P,REF\u002A\u002A,3*%
X154940000Y-60960000D03*
%TO.P,REF\u002A\u002A,4*%
X154940000Y-63500000D03*
%TD*%
%TO.P,REF\u002A\u002A,1*%
%TO.N,N/C*%
X149860000Y-38100000D03*
%TO.P,REF\u002A\u002A,2*%
X149860000Y-40640000D03*
%TD*%
%TO.P,REF\u002A\u002A,1*%
%TO.N,N/C*%
X142240000Y-38100000D03*
%TO.P,REF\u002A\u002A,2*%
X142240000Y-40640000D03*
%TD*%
D12*
%TO.P,REF\u002A\u002A,1*%
%TO.N,N/C*%
X157480000Y-35560000D03*
%TO.P,REF\u002A\u002A,2*%
X165100000Y-35560000D03*
%TD*%
%TO.N,*%
D16*
X173990000Y-78740000D02*
X182880000Y-69850000D01*
X176530000Y-78740000D02*
X182880000Y-72390000D01*
D17*
X107950000Y-83820000D02*
X107950000Y-64770000D01*
X107950000Y-64770000D02*
X106680000Y-63500000D01*
X106680000Y-63500000D02*
X105410000Y-63500000D01*
X110490000Y-86360000D02*
X107950000Y-83820000D01*
X161290000Y-86360000D02*
X110490000Y-86360000D01*
X167640000Y-80010000D02*
X161290000Y-86360000D01*
X167640000Y-78740000D02*
X167640000Y-80010000D01*
X110490000Y-63500000D02*
X107950000Y-60960000D01*
X111760000Y-85090000D02*
X110490000Y-83820000D01*
X158750000Y-85090000D02*
X111760000Y-85090000D01*
X110490000Y-83820000D02*
X110490000Y-63500000D01*
X107950000Y-60960000D02*
X105410000Y-60960000D01*
X165100000Y-78740000D02*
X158750000Y-85090000D01*
X162560000Y-76200000D02*
X160020000Y-78740000D01*
X170180000Y-76200000D02*
X162560000Y-76200000D01*
X176530000Y-71120000D02*
X175260000Y-71120000D01*
X175260000Y-71120000D02*
X170180000Y-76200000D01*
X177800000Y-69850000D02*
X176530000Y-71120000D01*
X179070000Y-66040000D02*
X177800000Y-67310000D01*
X184150000Y-66040000D02*
X179070000Y-66040000D01*
X186690000Y-63500000D02*
X184150000Y-66040000D01*
X186690000Y-44450000D02*
X186690000Y-63500000D01*
X185420000Y-43180000D02*
X186690000Y-44450000D01*
X160020000Y-43180000D02*
X185420000Y-43180000D01*
X152400000Y-35560000D02*
X160020000Y-43180000D01*
X137160000Y-35560000D02*
X152400000Y-35560000D01*
X177800000Y-67310000D02*
X177800000Y-69850000D01*
X128905000Y-33655000D02*
X135255000Y-33655000D01*
X135255000Y-33655000D02*
X137160000Y-35560000D01*
X127000000Y-35560000D02*
X128905000Y-33655000D01*
X123190000Y-35560000D02*
X127000000Y-35560000D01*
D16*
X167640000Y-45720000D02*
X170180000Y-45720000D01*
D17*
X101600000Y-78740000D02*
X105410000Y-78740000D01*
X99060000Y-76200000D02*
X101600000Y-78740000D01*
X99060000Y-71120000D02*
X105410000Y-71120000D01*
X99060000Y-68580000D02*
X105410000Y-68580000D01*
X142240000Y-73660000D02*
X152400000Y-73660000D01*
X101600000Y-58420000D02*
X105410000Y-58420000D01*
X99060000Y-60960000D02*
X101600000Y-58420000D01*
X101600000Y-55880000D02*
X105410000Y-55880000D01*
X99060000Y-58420000D02*
X101600000Y-55880000D01*
X99060000Y-50800000D02*
X105410000Y-50800000D01*
X99060000Y-48260000D02*
X105410000Y-48260000D01*
X99060000Y-45720000D02*
X105410000Y-45720000D01*
X99060000Y-43180000D02*
X105410000Y-43180000D01*
X142240000Y-73660000D02*
X147320000Y-68580000D01*
X132080000Y-73660000D02*
X142240000Y-73660000D01*
X142240000Y-71120000D02*
X147320000Y-66040000D01*
X132080000Y-71120000D02*
X142240000Y-71120000D01*
D16*
X152400000Y-45720000D02*
X167640000Y-45720000D01*
X147320000Y-50800000D02*
X152400000Y-45720000D01*
D17*
X132080000Y-48260000D02*
X132080000Y-45720000D01*
X134620000Y-50800000D02*
X132080000Y-48260000D01*
X129540000Y-76200000D02*
X127000000Y-78740000D01*
X144780000Y-76200000D02*
X129540000Y-76200000D01*
X127000000Y-78740000D02*
X123190000Y-78740000D01*
X152400000Y-76200000D02*
X144780000Y-76200000D01*
X152400000Y-78740000D02*
X149860000Y-81280000D01*
X138430000Y-81280000D02*
X149860000Y-81280000D01*
X138430000Y-78740000D02*
X144780000Y-78740000D01*
X128270000Y-81280000D02*
X130810000Y-78740000D01*
X123190000Y-81280000D02*
X128270000Y-81280000D01*
X128270000Y-83820000D02*
X130810000Y-81280000D01*
X123190000Y-83820000D02*
X128270000Y-83820000D01*
D16*
X177800000Y-53340000D02*
X182880000Y-48260000D01*
X175260000Y-53340000D02*
X177800000Y-53340000D01*
X177800000Y-50800000D02*
X182880000Y-45720000D01*
X175260000Y-50800000D02*
X177800000Y-50800000D01*
X170180000Y-48260000D02*
X175260000Y-53340000D01*
X152400000Y-48260000D02*
X170180000Y-48260000D01*
X147320000Y-53340000D02*
X152400000Y-48260000D01*
D17*
X142240000Y-38100000D02*
X132080000Y-38100000D01*
X149860000Y-38100000D02*
X142240000Y-38100000D01*
X129540000Y-38100000D02*
X132080000Y-38100000D01*
X127000000Y-40640000D02*
X129540000Y-38100000D01*
X123190000Y-40640000D02*
X127000000Y-40640000D01*
X132080000Y-45720000D02*
X132080000Y-40640000D01*
X124460000Y-66040000D02*
X132080000Y-73660000D01*
X123190000Y-66040000D02*
X124460000Y-66040000D01*
X127000000Y-66040000D02*
X132080000Y-71120000D01*
X127000000Y-47307500D02*
X127000000Y-66040000D01*
X123190000Y-45720000D02*
X125412500Y-45720000D01*
X125412500Y-45720000D02*
X127000000Y-47307500D01*
X170180000Y-73660000D02*
X175260000Y-68580000D01*
X152400000Y-73660000D02*
X170180000Y-73660000D01*
X170180000Y-71120000D02*
X175260000Y-66040000D01*
X152400000Y-71120000D02*
X170180000Y-71120000D01*
X147320000Y-66040000D02*
X152400000Y-71120000D01*
D16*
X147320000Y-55880000D02*
X154940000Y-55880000D01*
X147320000Y-60960000D02*
X154940000Y-60960000D01*
X175260000Y-60960000D02*
X182880000Y-60960000D01*
X182880000Y-63500000D02*
X175260000Y-63500000D01*
X182880000Y-58420000D02*
X175260000Y-58420000D01*
X147320000Y-63500000D02*
X154940000Y-63500000D01*
X147320000Y-58420000D02*
X154940000Y-58420000D01*
X175260000Y-55880000D02*
X182880000Y-55880000D01*
X170180000Y-45720000D02*
X175260000Y-50800000D01*
%TD*%
M02*
